<?xml version="1.0" standalone="no"?>
<!DOCTYPE svg PUBLIC "-//W3C//DTD SVG 1.1//EN" "http://www.w3.org/Graphics/SVG/1.1/DTD/svg11.dtd">
<svg t="1720418405084" class="icon" viewBox="0 0 1024 1024" version="1.1"
    xmlns="http://www.w3.org/2000/svg" p-id="2942" width="30" height="30"
    xmlns:xlink="http://www.w3.org/1999/xlink">
    <path
        d="M851.9168 530.9952c-3.4304-12.2368-8.96-23.4496-16.0256-33.536a341.07904 341.07904 0 0 0 14.1312-97.1264c0-31.5392-4.3008-62.7712-12.8-92.8256a20.5056 20.5056 0 0 0-25.2416-14.1824c-10.9056 3.072-17.2032 14.3872-14.1312 25.2928a300.5952 300.5952 0 0 1 11.2128 81.7152c0 22.2208-2.4576 44.2368-7.2704 65.792-0.512-0.3072-1.024-0.6144-1.536-0.8704L428.1344 256.2048a20.51072 20.51072 0 0 0-27.904 7.8336 20.50048 20.50048 0 0 0 7.8336 27.904l372.0704 209.0496c1.792 0.9728 3.4816 2.0992 5.12 3.2256 1.0752 0.768 2.1504 1.5872 3.2256 2.4064l1.28 0.9728c2.816 2.3552 5.5296 4.9152 8.0384 7.7312 0.0512 0.0512 0.1024 0.1024 0.2048 0.1536 6.7072 7.5776 11.7248 16.5888 14.4896 26.624 4.9152 17.5616 2.7136 36.0448-6.1952 51.9168-8.96 15.9232-23.552 27.392-41.1136 32.3072-13.4144 3.7888-27.392 3.328-40.3456-1.0752-0.256-0.1024-0.5632-0.256-0.8192-0.3584-2.048-0.7168-3.9424-1.4848-5.7344-2.2528-1.6896-0.768-3.4304-1.5872-5.0688-2.5088l-95.8976-53.8624c-6.3488-3.584-14.08-3.4816-20.3776 0.2048a20.43904 20.43904 0 0 0-10.1376 17.664v243.456c0 15.2576-12.3904 27.6992-27.6992 27.6992s-27.6992-12.3904-27.6992-27.6992V656.384c0-11.3152-9.1648-20.48-20.48-20.48s-20.48 9.1648-20.48 20.48v43.8784a297.28768 297.28768 0 0 1-79.9232-15.872c-2.8672-0.9728-5.7344-1.9968-8.5504-3.072-1.9968-0.768-4.0448-1.5872-6.0416-2.3552-2.2528-0.9216-4.5056-1.8432-6.7584-2.816-2.6112-1.1264-5.1712-2.304-7.7312-3.4816-1.5872-0.768-3.2256-1.4848-4.8128-2.2528-3.1232-1.536-6.1952-3.1232-9.2672-4.7616-1.024-0.5632-2.0992-1.0752-3.1232-1.6384-3.4304-1.8944-6.8096-3.84-10.1888-5.8368-0.6656-0.4096-1.3824-0.8192-2.048-1.2288-3.5328-2.1504-7.0144-4.4032-10.3936-6.7072-0.5632-0.3584-1.0752-0.7168-1.6384-1.0752-3.4304-2.304-6.8096-4.7104-10.1376-7.2192l-1.6896-1.2288c-3.2256-2.4576-6.4-4.9664-9.5744-7.5264-0.6144-0.512-1.2288-0.9728-1.8432-1.4848-66.3552-55.2448-108.7488-138.4448-108.7488-231.3728 0-5.5808 0.2048-11.1616 0.5632-16.7936l102.9632 57.856v107.1104c0 37.8368 30.7712 68.6592 68.6592 68.6592s68.608-30.7712 68.608-68.6592v-29.952l41.7792 23.4496v32c0 11.3152 9.1648 20.48 20.48 20.48s20.48-9.1648 20.48-20.48v-43.9808c0-7.424-3.9936-14.2336-10.4448-17.8688L438.272 465.664c-6.3488-3.584-14.08-3.4816-20.3776 0.2048a20.43904 20.43904 0 0 0-10.1376 17.664v64.9728c0 15.2576-12.3904 27.6992-27.648 27.6992-15.2576 0-27.6992-12.3904-27.6992-27.6992V429.4144c0-7.424-3.9936-14.2336-10.4448-17.8688L219.136 342.5792c-4.7616-2.6624-9.1136-5.9392-13.0048-9.5744-0.1536-0.1536-0.3072-0.256-0.4608-0.4096a68.24448 68.24448 0 0 1-18.8928-31.1296 68.0448 68.0448 0 0 1 6.1952-51.9168c18.4832-32.8704 60.2112-44.544 93.0816-26.112l64.256 36.096a20.50048 20.50048 0 0 0 20.0704-35.7376l-64.256-36.096c-2.1504-1.2288-4.4032-2.2016-6.6048-3.2768A299.8016 299.8016 0 0 1 508.4672 99.84c78.1312 0 152.1152 29.8496 208.384 83.968a20.52608 20.52608 0 0 0 28.9792-0.5632 20.52608 20.52608 0 0 0-0.5632-28.9792c-63.9488-61.5424-148.0192-95.4368-236.8-95.4368-97.9968 0-190.3616 41.7792-255.2832 114.8928-38.4-0.1536-75.8272 19.9168-95.9488 55.7056a108.61568 108.61568 0 0 0-9.9328 83.0464c4.4544 15.8208 12.288 30.0544 22.784 42.1376-2.048 15.3088-3.1744 30.6176-3.1744 45.7216 0 97.7408 41.3696 185.9584 107.3664 248.2688l-121.088 208.384c-22.528 38.9632-9.1136 88.9856 29.9008 111.5136 12.8 7.424 26.8288 10.9056 40.704 10.9056 28.2112 0 55.7056-14.6432 70.8096-40.7552l121.7536-209.5616c23.7568 6.656 48.5376 10.9056 74.0352 12.2368v86.2208c0 37.8368 30.7712 68.6592 68.6592 68.6592s68.6592-30.7712 68.6592-68.6592v-107.264a337.0496 337.0496 0 0 0 93.9008-53.4016c17.7664 4.1984 36.4544 3.9424 54.528-1.1776 28.1088-7.8848 51.456-26.2656 65.792-51.712s17.8688-54.8352 9.984-82.9952z m-474.9312 184.5248l-117.76 202.6496c-11.2128 19.4048-36.1472 26.112-55.552 14.8992-19.4048-11.2128-26.112-36.1472-14.8992-55.5008l117.4528-202.1376c2.5088 1.8432 5.12 3.5328 7.68 5.3248 1.7408 1.2288 3.4816 2.4576 5.2224 3.6352a402.45248 402.45248 0 0 0 15.6672 9.8816c3.0208 1.792 6.0928 3.584 9.1648 5.2736 2.6112 1.4336 5.3248 2.816 7.9872 4.1984 2.6624 1.3824 5.2736 2.7648 7.936 4.0448 5.4272 2.6112 10.9056 5.12 16.4864 7.4752 0.256 0.0512 0.4096 0.1536 0.6144 0.256z m250.7776-39.2704v-57.1392l51.1488 28.7744a298.88 298.88 0 0 1-51.1488 28.3648z"
        fill="#1afa29" p-id="2943"></path>
    <path
        d="M764.416 242.688a20.44416 20.44416 0 0 0 17.408 9.6768c3.6864 0 7.424-0.9728 10.752-3.072a20.44928 20.44928 0 0 0 6.6048-28.2112c-1.1264-1.792-2.2528-3.6352-3.4304-5.4272a20.4544 20.4544 0 0 0-28.3136-6.144 20.4544 20.4544 0 0 0-6.144 28.3136c1.1264 1.6384 2.1504 3.2256 3.1232 4.864zM537.6512 163.8912c-11.3152 0-20.48 9.1648-20.48 20.48s9.1648 20.48 20.48 20.48c30.7712 0.0512 58.4704 8.9088 82.432 26.368a20.44928 20.44928 0 0 0 28.5696-4.4544c6.656-9.1648 4.6592-21.9648-4.4544-28.6208-31.0784-22.6816-66.9184-34.2528-106.5472-34.2528zM468.48 175.4112c-8.3968 2.8672-13.4656 5.2224-13.9776 5.4784a20.48 20.48 0 0 0-9.7792 27.1872 20.48 20.48 0 0 0 18.5856 11.776c2.8672 0 5.8368-0.6144 8.6016-1.8944 0.0512 0 3.584-1.6384 9.7792-3.7376 10.7008-3.6352 16.4352-15.2576 12.8-26.0096s-15.3088-16.4864-26.0096-12.8z"
        fill="#1afa29" p-id="2944"></path>
</svg>